M48
; DRILL file for JLCPCB
METRIC,TZ
T1C0.900
T2C1.300
T3C3.200
%
G90
G05
T3
X5.000Y5.000
X95.000Y5.000
X5.000Y70.000
X95.000Y70.000
T2
X12.000Y66.000
X17.080Y66.000
X24.000Y66.000
X24.000Y61.000
T1
X30.000Y66.000
X30.000Y61.000
X15.000Y52.000
X40.400Y52.000
X15.000Y49.460
X40.400Y49.460
X15.000Y46.920
X40.400Y46.920
X15.000Y44.380
X40.400Y44.380
X15.000Y41.840
X40.400Y41.840
X15.000Y39.300
X40.400Y39.300
X15.000Y36.760
X40.400Y36.760
X15.000Y34.220
X40.400Y34.220
X15.000Y31.680
X40.400Y31.680
X15.000Y29.140
X40.400Y29.140
X15.000Y26.600
X40.400Y26.600
X15.000Y24.060
X40.400Y24.060
X15.000Y21.520
X40.400Y21.520
X15.000Y18.980
X40.400Y18.980
X15.000Y16.440
X40.400Y16.440
X20.000Y8.000
X22.540Y8.000
X25.080Y8.000
X27.620Y8.000
X55.000Y65.000
X72.780Y65.000
X55.000Y62.460
X72.780Y62.460
X55.000Y59.920
X72.780Y59.920
X55.000Y57.380
X72.780Y57.380
X55.000Y54.840
X72.780Y54.840
X55.000Y52.300
X72.780Y52.300
X55.000Y49.760
X72.780Y49.760
X55.000Y47.220
X72.780Y47.220
T2
X48.000Y65.000
X48.000Y60.000
T1
X48.000Y40.000
X48.000Y47.620
T2
X88.000Y67.080
X88.000Y62.000
X88.000Y56.920
T1
X86.000Y43.810
X86.000Y36.190
X93.000Y43.810
X93.000Y36.190
X86.000Y24.000
X86.000Y26.540
X86.000Y29.080
X75.000Y26.540
X82.620Y26.540
X52.000Y17.540
X52.000Y15.000
X54.540Y17.540
X54.540Y15.000
X57.080Y17.540
X57.080Y15.000
X59.620Y17.540
X59.620Y15.000
X62.160Y17.540
X62.160Y15.000
X64.700Y17.540
X64.700Y15.000
X67.240Y17.540
X67.240Y15.000
X69.780Y17.540
X69.780Y15.000
M30
