G04 Layer: Bottom Silkscreen*
%FSLAX46Y46*%
%MOMM*%
%LPD*%
%ADD14C,0.250000*%
D14*
X33000000Y40666667D02*
X33000000Y40333333D01*
X33000000Y40333333D02*
X33350000Y40000000D01*
X33350000Y40000000D02*
X34050000Y40000000D01*
X34050000Y40000000D02*
X34400000Y40333333D01*
X34400000Y40333333D02*
X34400000Y42000000D01*
X34800000Y42000000D02*
X34800000Y40000000D01*
X34800000Y40000000D02*
X35500000Y41000000D01*
X35500000Y41000000D02*
X36200000Y40000000D01*
X36200000Y40000000D02*
X36200000Y42000000D01*
X38000000Y41666667D02*
X37650000Y42000000D01*
X37650000Y42000000D02*
X36950000Y42000000D01*
X36950000Y42000000D02*
X36600000Y41666667D01*
X36600000Y41666667D02*
X36950000Y41333333D01*
X36950000Y41333333D02*
X37650000Y41000000D01*
X37650000Y41000000D02*
X38000000Y40666667D01*
X38000000Y40666667D02*
X38000000Y40333333D01*
X38000000Y40333333D02*
X37650000Y40000000D01*
X37650000Y40000000D02*
X36950000Y40000000D01*
X36950000Y40000000D02*
X36600000Y40333333D01*
X40200000Y40333333D02*
X40550000Y40000000D01*
X40550000Y40000000D02*
X41250000Y40000000D01*
X41250000Y40000000D02*
X41600000Y40333333D01*
X41600000Y40333333D02*
X41600000Y41333333D01*
X41600000Y41333333D02*
X40550000Y41333333D01*
X40550000Y41333333D02*
X40200000Y41000000D01*
X40200000Y41000000D02*
X40200000Y40333333D01*
X40200000Y40666667D02*
X41600000Y40666667D01*
X42700000Y42000000D02*
X42700000Y40000000D01*
X42700000Y40000000D02*
X43050000Y40000000D01*
X45200000Y41666667D02*
X44850000Y42000000D01*
X44850000Y42000000D02*
X44150000Y42000000D01*
X44150000Y42000000D02*
X43800000Y41666667D01*
X43800000Y41666667D02*
X43800000Y40333333D01*
X43800000Y40333333D02*
X44150000Y40000000D01*
X44150000Y40000000D02*
X45200000Y40000000D01*
X45200000Y40000000D02*
X45200000Y41000000D01*
X45200000Y41000000D02*
X44500000Y41000000D01*
X45600000Y40000000D02*
X45600000Y41333333D01*
X45600000Y41333333D02*
X46300000Y42000000D01*
X46300000Y42000000D02*
X47000000Y41333333D01*
X47000000Y41333333D02*
X47000000Y40000000D01*
X45600000Y40666667D02*
X47000000Y40666667D01*
X47400000Y40000000D02*
X47400000Y42000000D01*
X47400000Y42000000D02*
X48800000Y42000000D01*
X47400000Y41000000D02*
X48450000Y41000000D01*
X49200000Y40000000D02*
X49200000Y42000000D01*
X49200000Y42000000D02*
X50600000Y42000000D01*
X49200000Y41000000D02*
X50250000Y41000000D01*
X51000000Y40000000D02*
X51000000Y41333333D01*
X51000000Y41333333D02*
X51700000Y42000000D01*
X51700000Y42000000D02*
X52400000Y41333333D01*
X52400000Y41333333D02*
X52400000Y40000000D01*
X51000000Y40666667D02*
X52400000Y40666667D01*
X52800000Y40000000D02*
X52800000Y42000000D01*
X52800000Y42000000D02*
X53850000Y42000000D01*
X53850000Y42000000D02*
X54200000Y41666667D01*
X54200000Y41666667D02*
X54200000Y41333333D01*
X54200000Y41333333D02*
X53850000Y41000000D01*
X53850000Y41000000D02*
X52800000Y41000000D01*
X53500000Y41000000D02*
X54200000Y40000000D01*
X56400000Y41000000D02*
X57800000Y41000000D01*
X60000000Y40000000D02*
X60000000Y42000000D01*
X60000000Y42000000D02*
X61400000Y42000000D01*
X60000000Y41000000D02*
X61050000Y41000000D01*
X60000000Y40000000D02*
X61400000Y40000000D01*
X63200000Y41666667D02*
X62850000Y42000000D01*
X62850000Y42000000D02*
X62150000Y42000000D01*
X62150000Y42000000D02*
X61800000Y41666667D01*
X61800000Y41666667D02*
X62150000Y41333333D01*
X62150000Y41333333D02*
X62850000Y41000000D01*
X62850000Y41000000D02*
X63200000Y40666667D01*
X63200000Y40666667D02*
X63200000Y40333333D01*
X63200000Y40333333D02*
X62850000Y40000000D01*
X62850000Y40000000D02*
X62150000Y40000000D01*
X62150000Y40000000D02*
X61800000Y40333333D01*
X63600000Y40000000D02*
X63600000Y42000000D01*
X63600000Y42000000D02*
X64650000Y42000000D01*
X64650000Y42000000D02*
X65000000Y41666667D01*
X65000000Y41666667D02*
X65000000Y41333333D01*
X65000000Y41333333D02*
X64650000Y41000000D01*
X64650000Y41000000D02*
X63600000Y41000000D01*
X65400000Y41666667D02*
X65750000Y42000000D01*
X65750000Y42000000D02*
X66450000Y42000000D01*
X66450000Y42000000D02*
X66800000Y41666667D01*
X66800000Y41666667D02*
X66450000Y41000000D01*
X66450000Y41000000D02*
X66800000Y40666667D01*
X66800000Y40666667D02*
X66800000Y40333333D01*
X66800000Y40333333D02*
X66450000Y40000000D01*
X66450000Y40000000D02*
X65400000Y40000000D01*
X67200000Y41666667D02*
X67550000Y42000000D01*
X67550000Y42000000D02*
X68250000Y42000000D01*
X68250000Y42000000D02*
X68600000Y41666667D01*
X68600000Y41666667D02*
X68600000Y41333333D01*
X68600000Y41333333D02*
X67200000Y40000000D01*
X67200000Y40000000D02*
X68600000Y40000000D01*
X35500000Y35000000D02*
X35500000Y36800000D01*
X35500000Y36800000D02*
X36100000Y36800000D01*
X36100000Y36800000D02*
X36700000Y36200000D01*
X36700000Y36200000D02*
X36700000Y35600000D01*
X36700000Y35600000D02*
X36100000Y35000000D01*
X36100000Y35000000D02*
X35500000Y35000000D01*
X37100000Y35000000D02*
X37100000Y36800000D01*
X37100000Y36800000D02*
X38300000Y36800000D01*
X37100000Y35900000D02*
X38000000Y35900000D01*
X37100000Y35000000D02*
X38300000Y35000000D01*
X39900000Y36500000D02*
X39600000Y36800000D01*
X39600000Y36800000D02*
X39000000Y36800000D01*
X39000000Y36800000D02*
X38700000Y36500000D01*
X38700000Y36500000D02*
X39000000Y36200000D01*
X39000000Y36200000D02*
X39600000Y35900000D01*
X39600000Y35900000D02*
X39900000Y35600000D01*
X39900000Y35600000D02*
X39900000Y35300000D01*
X39900000Y35300000D02*
X39600000Y35000000D01*
X39600000Y35000000D02*
X39000000Y35000000D01*
X39000000Y35000000D02*
X38700000Y35300000D01*
X40300000Y36800000D02*
X41500000Y36800000D01*
X40900000Y36800000D02*
X40900000Y35000000D01*
X40300000Y35000000D02*
X41500000Y35000000D01*
X43100000Y36500000D02*
X42800000Y36800000D01*
X42800000Y36800000D02*
X42200000Y36800000D01*
X42200000Y36800000D02*
X41900000Y36500000D01*
X41900000Y36500000D02*
X41900000Y35300000D01*
X41900000Y35300000D02*
X42200000Y35000000D01*
X42200000Y35000000D02*
X43100000Y35000000D01*
X43100000Y35000000D02*
X43100000Y35900000D01*
X43100000Y35900000D02*
X42500000Y35900000D01*
X43500000Y35000000D02*
X43500000Y36800000D01*
X43500000Y36800000D02*
X44700000Y35000000D01*
X44700000Y35000000D02*
X44700000Y36800000D01*
X45100000Y35000000D02*
X45100000Y36800000D01*
X45100000Y36800000D02*
X46300000Y36800000D01*
X45100000Y35900000D02*
X46000000Y35900000D01*
X45100000Y35000000D02*
X46300000Y35000000D01*
X46700000Y35000000D02*
X46700000Y36800000D01*
X46700000Y36800000D02*
X47300000Y36800000D01*
X47300000Y36800000D02*
X47900000Y36200000D01*
X47900000Y36200000D02*
X47900000Y35600000D01*
X47900000Y35600000D02*
X47300000Y35000000D01*
X47300000Y35000000D02*
X46700000Y35000000D01*
X49900000Y35000000D02*
X49900000Y36800000D01*
X49900000Y36800000D02*
X50800000Y36800000D01*
X50800000Y36800000D02*
X51100000Y36500000D01*
X51100000Y36500000D02*
X50800000Y35900000D01*
X50800000Y35900000D02*
X49900000Y35900000D01*
X49900000Y35900000D02*
X50800000Y35900000D01*
X50800000Y35900000D02*
X51100000Y35600000D01*
X51100000Y35600000D02*
X50800000Y35000000D01*
X50800000Y35000000D02*
X49900000Y35000000D01*
X51500000Y36800000D02*
X52100000Y35900000D01*
X52700000Y36800000D02*
X52100000Y35900000D01*
X52100000Y35900000D02*
X52100000Y35000000D01*
X54700000Y35000000D02*
X54700000Y36800000D01*
X54700000Y36800000D02*
X55600000Y36800000D01*
X55600000Y36800000D02*
X55900000Y36500000D01*
X55900000Y36500000D02*
X55900000Y36200000D01*
X55900000Y36200000D02*
X55600000Y35900000D01*
X55600000Y35900000D02*
X54700000Y35900000D01*
X55300000Y35900000D02*
X55900000Y35000000D01*
X56600000Y35000000D02*
X57200000Y35000000D01*
X57200000Y35000000D02*
X57500000Y35300000D01*
X57500000Y35300000D02*
X57500000Y35900000D01*
X57500000Y35900000D02*
X57200000Y36200000D01*
X57200000Y36200000D02*
X56600000Y36200000D01*
X56600000Y36200000D02*
X56300000Y35900000D01*
X56300000Y35900000D02*
X56300000Y35300000D01*
X56300000Y35300000D02*
X56600000Y35000000D01*
X57900000Y35600000D02*
X59100000Y35600000D01*
X59100000Y35600000D02*
X59100000Y35900000D01*
X59100000Y35900000D02*
X58800000Y36200000D01*
X58800000Y36200000D02*
X58200000Y36200000D01*
X58200000Y36200000D02*
X57900000Y35900000D01*
X57900000Y35900000D02*
X57900000Y35300000D01*
X57900000Y35300000D02*
X58200000Y35000000D01*
X58200000Y35000000D02*
X58800000Y35000000D01*
X58800000Y35000000D02*
X59100000Y35300000D01*
X60700000Y35900000D02*
X60400000Y36200000D01*
X60400000Y36200000D02*
X59800000Y36200000D01*
X59800000Y36200000D02*
X59500000Y35900000D01*
X59500000Y35900000D02*
X60700000Y35300000D01*
X60700000Y35300000D02*
X60400000Y35000000D01*
X60400000Y35000000D02*
X59500000Y35000000D01*
X62300000Y35900000D02*
X62000000Y36200000D01*
X62000000Y36200000D02*
X61400000Y36200000D01*
X61400000Y36200000D02*
X61100000Y35900000D01*
X61100000Y35900000D02*
X61100000Y35300000D01*
X61100000Y35300000D02*
X61400000Y35000000D01*
X61400000Y35000000D02*
X62000000Y35000000D01*
X62000000Y35000000D02*
X62300000Y35300000D01*
X62700000Y35000000D02*
X62700000Y36800000D01*
X62700000Y35900000D02*
X63600000Y36200000D01*
X63600000Y36200000D02*
X63900000Y35900000D01*
X63900000Y35900000D02*
X63900000Y35000000D01*
M02*
