G04 Layer: Top Solder Mask*
%FSLAX46Y46*%
%MOMM*%
%LPD*%
%ADD12C,2.000000*%
%ADD13R,2.000000X2.000000*%
%ADD20C,6.300000*%
%ADD22C,2.900000*%
D20*
X5000000Y5000000D03*
X95000000Y5000000D03*
X5000000Y70000000D03*
X95000000Y70000000D03*
D22*
X12000000Y66000000D03*
X17080000Y66000000D03*
X24000000Y66000000D03*
X24000000Y61000000D03*
D13*
X30000000Y66000000D03*
D12*
X30000000Y61000000D03*
D13*
X15000000Y52000000D03*
X40400000Y52000000D03*
D12*
X15000000Y49460000D03*
X40400000Y49460000D03*
X15000000Y46920000D03*
X40400000Y46920000D03*
X15000000Y44380000D03*
X40400000Y44380000D03*
X15000000Y41840000D03*
X40400000Y41840000D03*
X15000000Y39300000D03*
X40400000Y39300000D03*
X15000000Y36760000D03*
X40400000Y36760000D03*
X15000000Y34220000D03*
X40400000Y34220000D03*
X15000000Y31680000D03*
X40400000Y31680000D03*
X15000000Y29140000D03*
X40400000Y29140000D03*
X15000000Y26600000D03*
X40400000Y26600000D03*
X15000000Y24060000D03*
X40400000Y24060000D03*
X15000000Y21520000D03*
X40400000Y21520000D03*
X15000000Y18980000D03*
X40400000Y18980000D03*
X15000000Y16440000D03*
X40400000Y16440000D03*
D13*
X20000000Y8000000D03*
D12*
X22540000Y8000000D03*
X25080000Y8000000D03*
X27620000Y8000000D03*
D13*
X55000000Y65000000D03*
D12*
X72780000Y65000000D03*
X55000000Y62460000D03*
X72780000Y62460000D03*
X55000000Y59920000D03*
X72780000Y59920000D03*
X55000000Y57380000D03*
X72780000Y57380000D03*
X55000000Y54840000D03*
X72780000Y54840000D03*
X55000000Y52300000D03*
X72780000Y52300000D03*
X55000000Y49760000D03*
X72780000Y49760000D03*
X55000000Y47220000D03*
X72780000Y47220000D03*
D22*
X48000000Y65000000D03*
X48000000Y60000000D03*
D13*
X48000000Y40000000D03*
D12*
X48000000Y47620000D03*
D22*
X88000000Y67080000D03*
X88000000Y62000000D03*
X88000000Y56920000D03*
D13*
X86000000Y43810000D03*
D12*
X86000000Y36190000D03*
D13*
X93000000Y43810000D03*
D12*
X93000000Y36190000D03*
D13*
X86000000Y24000000D03*
D12*
X86000000Y26540000D03*
X86000000Y29080000D03*
D13*
X75000000Y26540000D03*
D12*
X82620000Y26540000D03*
D13*
X52000000Y17540000D03*
D12*
X52000000Y15000000D03*
X54540000Y17540000D03*
X54540000Y15000000D03*
X57080000Y17540000D03*
X57080000Y15000000D03*
X59620000Y17540000D03*
X59620000Y15000000D03*
X62160000Y17540000D03*
X62160000Y15000000D03*
X64700000Y17540000D03*
X64700000Y15000000D03*
X67240000Y17540000D03*
X67240000Y15000000D03*
X69780000Y17540000D03*
X69780000Y15000000D03*
M02*
